<svg xmlns="http://www.w3.org/2000/svg" width="27.347" height="27.347" viewBox="0 0 27.347 27.347">
  <defs>
    <style>
      .cls-1 {
        fill: #050a08;
      }
    </style>
  </defs>
  <g id="Group_2" data-name="Group 2" transform="translate(-384.627 -503.435)">
    <path id="Path_3" data-name="Path 3" class="cls-1" d="M400.917,517.108a2.617,2.617,0,1,1-2.617-2.617A2.617,2.617,0,0,1,400.917,517.108Z"/>
    <path id="Path_4" data-name="Path 4" class="cls-1" d="M404.421,512.478a2.6,2.6,0,0,0-1.49-1.49,4.311,4.311,0,0,0-1.458-.27c-.828-.038-1.076-.046-3.173-.046s-2.345.008-3.173.045a4.322,4.322,0,0,0-1.457.271,2.6,2.6,0,0,0-1.491,1.49,4.356,4.356,0,0,0-.27,1.458c-.038.828-.046,1.076-.046,3.173s.008,2.344.046,3.172a4.357,4.357,0,0,0,.27,1.458,2.6,2.6,0,0,0,1.49,1.49,4.335,4.335,0,0,0,1.458.271c.828.038,1.076.046,3.173.046s2.345-.008,3.173-.046a4.335,4.335,0,0,0,1.458-.271,2.6,2.6,0,0,0,1.49-1.49,4.356,4.356,0,0,0,.27-1.458c.038-.828.046-1.076.046-3.172s-.008-2.345-.046-3.173A4.3,4.3,0,0,0,404.421,512.478ZM398.3,521.14a4.031,4.031,0,1,1,4.032-4.032A4.032,4.032,0,0,1,398.3,521.14Zm4.191-7.281a.942.942,0,1,1,.943-.942A.942.942,0,0,1,402.491,513.859Z"/>
    <path id="Path_5" data-name="Path 5" class="cls-1" d="M398.3,503.435a13.673,13.673,0,1,0,13.674,13.673A13.675,13.675,0,0,0,398.3,503.435Zm7.8,16.911a5.747,5.747,0,0,1-.364,1.906,4.017,4.017,0,0,1-2.3,2.3,5.757,5.757,0,0,1-1.9.365c-.838.038-1.1.047-3.238.047s-2.4-.009-3.237-.047a5.764,5.764,0,0,1-1.906-.365,4.022,4.022,0,0,1-2.3-2.3,5.769,5.769,0,0,1-.365-1.906c-.038-.838-.047-1.1-.047-3.238s.009-2.4.047-3.237a5.77,5.77,0,0,1,.365-1.906,4.022,4.022,0,0,1,2.3-2.3,5.765,5.765,0,0,1,1.906-.365c.837-.038,1.105-.047,3.237-.047s2.4.009,3.237.047a5.759,5.759,0,0,1,1.906.365,4.02,4.02,0,0,1,2.3,2.3,5.77,5.77,0,0,1,.365,1.906c.038.838.047,1.105.047,3.237S406.143,519.508,406.1,520.346Z"/>
  </g>
</svg>
