<svg xmlns="http://www.w3.org/2000/svg" width="112.206" height="69.817" viewBox="0 0 112.206 69.817">
  <defs>
    <style>
      .cls-1 {
        fill: #050a08;
      }
    </style>
  </defs>
  <g id="Group_1" data-name="Group 1" transform="translate(-384.627 -388.137)">
    <path id="Path_1" data-name="Path 1" class="cls-1" d="M462.565,446.221h0l19.557-13.592c7.04-4.694,11.734-13.69,11.734-22.49,0-13.2-10.17-22-25.522-22-14.863,0-24.836,10.463-24.836,26.108h11.049c0-9.484,5.476-15.742,13.787-15.742s13.788,4.693,13.788,11.636c0,5.475-2.738,11.049-6.845,13.885l-32.366,22.685v9.876h4.708Z"/>
    <path id="Path_2" data-name="Path 2" class="cls-1" d="M421.611,398.055h0l-.809.56v32.351c0,9.192-4.6,15.255-11.44,15.255-6.161,0-11.05-3.814-12.321-9.486H384.627c1.76,12.712,11.636,21.219,24.739,21.219,14.765,0,24.543-10.756,24.543-26.988V389.507Z"/>
    <circle id="Ellipse_1" data-name="Ellipse 1" class="cls-1" cx="9.45" cy="9.45" r="9.45" transform="translate(477.933 437.887)"/>
  </g>
</svg>
