<svg xmlns="http://www.w3.org/2000/svg" width="27.347" height="27.347" viewBox="0 0 27.347 27.347">
  <defs>
    <style>
      .cls-1 {
        fill: #050a08;
      }
    </style>
  </defs>
  <path id="Path_7" data-name="Path 7" class="cls-1" d="M464.153,503.435a13.673,13.673,0,1,0,13.674,13.673A13.675,13.675,0,0,0,464.153,503.435Zm-3.973,20.671h-3.33V514.087h3.33Zm-1.665-11.387h-.022a1.9,1.9,0,1,1,.022,0Zm13.673,11.387h-3.33v-5.36c0-1.347-.482-2.266-1.687-2.266a1.824,1.824,0,0,0-1.709,1.218,2.282,2.282,0,0,0-.109.813v5.6h-3.33s.044-9.079,0-10.019h3.33v1.418a3.306,3.306,0,0,1,3-1.653c2.191,0,3.834,1.431,3.834,4.509Z" transform="translate(-450.48 -503.435)"/>
</svg>
